{"title":"Lakh Lakh - Kambakkht Ishq (2009) Xclusive Promo","uid":4946694,"size":14686584,"categoryP":"video","categoryS":"music_videos","magnet":"?xt=urn:btih:4881caf5e54b194ee6276619ddd5ae2556e0dc82&amp;dn=Lakh+Lakh+-+Kambakkht+Ishq+%282009%29+Xclusive+Promo&amp;tr=udp%3A%2F%2Ftracker.openbittorrent.com%3A80&amp;tr=udp%3A%2F%2Fopen.demonii.com%3A1337&amp;tr=udp%3A%2F%2Ftracker.coppersurfer.tk%3A6969&amp;tr=udp%3A%2F%2Fexodus.desync.com%3A6969","seeders":0,"leechers":0,"uploader":"ictorrents","files":1,"time":1244689429,"description":"Format                           : AVI\nFormat/Info                      : Audio Video Interleave\nFile size                        : 14.0 MiB\nDuration                         : 1mn 0s\nOverall bit rate                 : 1 957 Kbps\nWriting library                  : VirtualDub build 30091/release\n\nVideo\nFormat                           : MPEG-4 Visual\nFormat profile                   : Simple Streaming Video@L4\nFormat settings, BVOP            : Yes\nFormat settings, QPel            : No\nFormat settings, GMC             : No warppoints\nFormat settings, Matrix          : Default\nMuxing mode                      : Packed bitstream\nCodec ID                         : XVID\nCodec ID/Hint                    : XviD\nDuration                         : 1mn 0s\nBit rate                         : 1 819 Kbps\nWidth                            : 594 pixels\nHeight                           : 260 pixels\nDisplay aspect ratio             : 2.25\nFrame rate                       : 25.000 fps\nResolution                       : 24 bits\nColorimetry                      : 4:2:0\nScan type                        : Progressive\nBits/(Pixel*Frame)               : 0.471\nStream size                      : 13.0 MiB (93%)\nWriting library                  : XviD 1.2.1 (UTC 2008-12-04)\n\nAudio\nFormat                           : MPEG Audio\nFormat version                   : Version 1\nFormat profile                   : Layer 3\nCodec ID                         : 55\nCodec ID/Hint                    : MP3\nDuration                         : 59s 600ms\nBit rate mode                    : Constant\nBit rate                         : 128 Kbps\nChannel(s)                       : 2 channels\nSampling rate                    : 44.1 KHz\nResolution                       : 16 bits\nVideo delay                      : 100ms\nStream size                      : 931 KiB (6%)\nAlignment                        : Split accross interleaves\nInterleave, duration             : 41 ms (1.02 video frame)\nInterleave, preload duration     : 1000 ms\n\nRipped By                        : sam171985 [M2TV]\n\n\nSS\n &lt;a href=&quot;\nhttp://www.grinshare.com/img/7KHDI1.jpg&quot; rel=&quot;nofollow&quot; target=&quot;_NEW&quot;&gt;\nhttp://www.grinshare.com/img/7KHDI1.jpg&lt;/a&gt;","torrent":{"xt":"urn:btih:4881caf5e54b194ee6276619ddd5ae2556e0dc82","amp;dn":"Lakh+Lakh+-+Kambakkht+Ishq+%282009%29+Xclusive+Promo","amp;tr":["udp%3A%2F%2Ftracker.openbittorrent.com%3A80","udp%3A%2F%2Fopen.demonii.com%3A1337","udp%3A%2F%2Ftracker.coppersurfer.tk%3A6969","udp%3A%2F%2Fexodus.desync.com%3A6969"],"infoHash":"4881caf5e54b194ee6276619ddd5ae2556e0dc82","infoHashBuffer":{"type":"Buffer","data":[72,129,202,245,229,75,25,78,230,39,102,25,221,213,174,37,86,224,220,130]},"announce":[],"urlList":[]}}